<?xml version="1.0" encoding="UTF-8" standalone="no"?>
<!-- Generator: Adobe Illustrator 15.0.2, SVG Export Plug-In  -->

<svg
   xmlns:dc="http://purl.org/dc/elements/1.1/"
   xmlns:cc="http://creativecommons.org/ns#"
   xmlns:rdf="http://www.w3.org/1999/02/22-rdf-syntax-ns#"
   xmlns:svg="http://www.w3.org/2000/svg"
   xmlns="http://www.w3.org/2000/svg"
   xmlns:sodipodi="http://sodipodi.sourceforge.net/DTD/sodipodi-0.dtd"
   xmlns:inkscape="http://www.inkscape.org/namespaces/inkscape"
   version="1.1"
   x="0px"
   y="0px"
   width="400"
   height="600"
   viewBox="73 -63.169 400 600"
   enable-background="new 73 -63.169 500 500"
   xml:space="preserve"
   id="svg2"
   inkscape:version="0.48.3.1 r9886"
   sodipodi:docname="sukejuu.svg"><metadata
   id="metadata78"><rdf:RDF><cc:Work
       rdf:about=""><dc:format>image/svg+xml</dc:format><dc:type
         rdf:resource="http://purl.org/dc/dcmitype/StillImage" /></cc:Work></rdf:RDF></metadata><sodipodi:namedview
   pagecolor="#ffffff"
   bordercolor="#666666"
   borderopacity="1"
   objecttolerance="10"
   gridtolerance="10"
   guidetolerance="10"
   inkscape:pageopacity="0"
   inkscape:pageshadow="2"
   inkscape:window-width="730"
   inkscape:window-height="480"
   id="namedview76"
   showgrid="false"
   inkscape:zoom="0.472"
   inkscape:cx="250"
   inkscape:cy="334.74576"
   inkscape:window-x="758"
   inkscape:window-y="373"
   inkscape:window-maximized="0"
   inkscape:current-layer="svg2" />
<defs
   id="defs4">
</defs>
<rect
   x="0.5"
   y="142.08099"
   display="none"
   stroke-miterlimit="10"
   width="813"
   height="681"
   id="rect6"
   style="fill:#e94518;stroke:#000000;stroke-miterlimit:10;display:none" />
<path
   stroke-miterlimit="10"
   d="m 256.62477,150.28318 -31.45758,5.82998 c 0,0 -0.7859,-2.1629 -7.07714,10.32219 -6.29124,12.48509 -22.80593,34.58628 -25.95222,41.23057 -3.14631,6.64429 -5.50535,-4.3664 -5.50535,-4.3664 l -7.86439,4.3664 -21.23414,-16.16299 c 0,0 -16.13322,36.5544 -34.22106,53.0691 -18.08783,16.51468 -22.40283,20.85538 -22.40283,20.85538 L 78.890026,279.5844 c 0,0 66.060094,49.54405 69.992284,48.75815 3.9322,-0.7859 21.23413,-4.71674 27.52538,-10.22344 6.29125,-5.50669 48.75815,-58.1957 48.75815,-58.1957 l 50.97923,-17.11391 45.76471,-98.74452 -65.28501,6.2182 z"
   id="path8"
   inkscape:connector-curvature="0"
   style="fill:#ffffff;stroke:#000000;stroke-width:1.35266471;stroke-miterlimit:10" />
<path
   stroke-miterlimit="10"
   d="m 280.22065,147.99852 c 0,0 -42.46827,-8.40409 -55.83665,-33.56907 -13.36839,-25.164975 -12.58248,-45.613205 0,-76.28352 12.58249,-30.6703211 37.74881,-40.8937621 63.70105,-44.0400601 25.95221,-3.146298 76.28488,4.718095 92.79956,22.0200291 16.77169,17.571117 22.74235,43.14053 22.01867,65.274186 -0.73855,22.638185 -16.16164,41.943425 -24.37907,47.972245 -21.55877,15.81536 -38.90129,18.69654 -48.68241,19.73945 -29.77891,3.1747 -49.62115,-1.11326 -49.62115,-1.11326 z"
   id="path10"
   inkscape:connector-curvature="0"
   style="fill:#ffffff;stroke:#000000;stroke-width:1.35266471;stroke-miterlimit:10" />
<polyline
   stroke-miterlimit="10"
   points="258.696,162.999 248.813,194.064 248.813,218.483   253.754,222.553 348.813,222.553 "
   id="polyline12"
   transform="matrix(1.3526647,0,0,1.3526647,-111.39202,-35.613527)"
   style="fill:#ffffff;stroke:#000000;stroke-miterlimit:10" />
<path
   stroke-miterlimit="10"
   d="m 347.06528,156.11181 c 0,0 44.04141,14.15563 48.75951,18.87509 4.7181,4.71943 29.09717,40.10785 30.67032,46.3991 1.57315,6.29124 9.43753,29.09717 -11.0107,44.04006 -20.44823,14.94288 -27.30759,20.44823 -27.30759,20.44823 l -27.74315,-20.44823 h -81.78888 l 11.7966,-40.10651 56.62389,-69.20774 z"
   id="path14"
   inkscape:connector-curvature="0"
   style="fill:#ffffff;stroke:#000000;stroke-width:1.35266471;stroke-miterlimit:10" />
<polygon
   stroke-miterlimit="10"
   points="297.988,162.999 272.068,137.43 289.512,135.741 306.464,152.652 "
   id="polygon16"
   transform="matrix(1.3526647,0,0,1.3526647,-111.39202,-35.613527)"
   style="fill:#ffffff;stroke:#000000;stroke-miterlimit:10" />
<polygon
   stroke-miterlimit="10"
   points="297.068,192.902 338.929,141.739 319.165,137.149 278.464,186.831 266.836,214.414 272.65,222.553 288.347,222.553 "
   id="polygon18"
   transform="matrix(1.3526647,0,0,1.3526647,-111.39202,-35.613527)"
   style="fill:#ffffff;stroke:#000000;stroke-miterlimit:10" />
<path
   stroke-miterlimit="10"
   d="m 325.51869,424.46426 -9.91098,1.93296 c 0,0 3.61973,41.14265 4.95617,47.43389 1.33643,6.29124 5.26727,11.71002 11.55851,9.00063 6.29125,-2.70939 6.7755,-15.46636 4.17433,-15.77206 -2.60118,-0.30571 -5.63385,-1.19442 -3.10166,-6.55908"
   id="path20"
   inkscape:connector-curvature="0"
   style="fill:#ffffff;stroke:#000000;stroke-width:1.35266471;stroke-miterlimit:10" />
<path
   stroke-miterlimit="10"
   d="m 308.80516,426.39722 h 3.65625 l 3.1463,42.71579 -3.40195,13.36974 c 0,0 -1.00368,0.78726 -7.05821,0 -6.05453,-0.78724 -5.01568,-11.01069 -1.99653,-19.66097 3.01915,-8.65029 -4.84524,-14.25574 -4.84524,-14.25574"
   id="path22"
   inkscape:connector-curvature="0"
   style="fill:#ffffff;stroke:#000000;stroke-width:1.35266471;stroke-miterlimit:10" />
<polygon
   stroke-miterlimit="10"
   points="352.033,234.763 348.813,222.553 253.754,222.553 253.754,234.763 "
   id="polygon24"
   transform="matrix(1.3526647,0,0,1.3526647,-111.39202,-35.613527)"
   style="fill:#ffffff;stroke:#000000;stroke-miterlimit:10" />
<path
   stroke-miterlimit="10"
   d="m 231.85206,281.94209 c 0,0 -49.15177,44.63388 -57.01617,65.17815 -7.86439,20.54427 -9.43754,35.48581 14.15563,73.23463 23.59319,37.7488 29.88443,44.40798 47.97227,56.62254 10.57377,7.14072 27.52537,23.59317 27.52537,23.59317 l 3.14629,-12.58383 8.65029,-0.7859 3.60351,-17.30193 12.91254,2.35905 v -22.02004 l 10.35058,-3.14494 10.0963,-36.96157 -56.62255,-22.80592 8.65164,-5.89763 -8.65164,-5.11171 48.52278,-55.83665 41.91774,45.6132 v 6.29125 l 5.50398,4.71809 -48.47003,29.34472 25.66411,13.12219 -10.22344,11.7966 12.58248,15.72879 1.57316,19.66097 26.73947,3.14495 -3.93219,19.66097 31.67534,2.35906 49.3885,-106.61974 c 0,0 10.94982,-23.92729 -8.27425,-38.18032 L 364.79331,281.94209 H 231.85206 z"
   id="path26"
   inkscape:connector-curvature="0"
   style="fill:#ffffff;stroke:#000000;stroke-width:1.35266471;stroke-miterlimit:10" />
<path
   stroke-miterlimit="10"
   d="m 360.43502,192.28747 9.43754,15.37709 v 27.87707 l -9.43754,29.88443 c 0,0 8.65165,40.89376 24.37908,58.19569 15.72743,17.30193 29.09988,20.44689 37.74881,22.80593 8.64894,2.35905 15.72743,-0.76831 22.01868,-18.07836 6.29124,-17.31006 20.44687,-77.0789 20.44687,-77.0789 l -35.73875,-7.86304"
   id="path28"
   inkscape:connector-curvature="0"
   style="fill:#ffffff;stroke:#000000;stroke-width:1.35266471;stroke-miterlimit:10" />
<path
   stroke-miterlimit="10"
   d="M 131.58173,163.97621 82.939908,166.434 V 82.517385 l 61.546242,-7.66555 c 0,0 1.80311,63.349345 2.029,64.025675 0.2259,0.67633 1.35266,23.89752 1.35266,23.89752 l -6.28042,0.71286"
   id="path30"
   inkscape:connector-curvature="0"
   style="fill:#ffffff;stroke:#000000;stroke-width:1.35266471;stroke-miterlimit:10" />
<path
   stroke-miterlimit="10"
   d="m 157.53531,191.50158 c 0,0 -14.94153,-17.10444 -15.72879,-25.06758 -0.78725,-7.96314 0,-18.43548 0,-18.43548 0,0 3.1463,-9.97454 -4.71809,-4.46919 -7.86439,5.50534 -5.50534,4.71809 -5.50534,12.58248 0,7.8644 0,7.8644 0,7.8644 l -22.02004,2.45779 c 0,0 -5.50534,-5.6041 0,7.76564 5.50536,13.36974 7.22459,13.71738 22.76265,24.37908 2.47673,1.7003 10.28701,7.05955 12.03736,8.26073 9.22788,6.33317 -5.72718,-3.93085 -5.72718,-3.93085 0,0 -15.87758,24.76864 -31.51844,40.49743 -15.640866,15.72878 -26.715131,33.8085 -26.715131,33.8085 l 35.004261,-22.91143 19.6691,-24.75242 22.45964,-38.0491 z"
   id="path32"
   inkscape:connector-curvature="0"
   style="fill:#ffffff;stroke:#000000;stroke-width:1.35266471;stroke-miterlimit:10" />
<path
   stroke-miterlimit="10"
   d="m 305.14755,76.879475 c 0,0 -8.32023,11.72355 -6.82554,13.07621 1.4947,1.35267 6.82554,4.05799 6.82554,4.05799"
   id="path34"
   inkscape:connector-curvature="0"
   style="fill:#ffffff;stroke:#000000;stroke-width:1.35266471;stroke-miterlimit:10" />
<text
   id="text36"
   x="96.693123"
   y="107.76623"
   style="font-size:16.23197746px"><tspan
     x="96.693123"
     y="107.76623"
     font-size="21"
     id="tspan38"
     style="font-size:28.40596008px;fill:#ffffff;font-family:HGPGyoshotai">助</tspan><tspan
     x="96.693123"
     y="157.47667"
     font-size="21"
     id="tspan40"
     style="font-size:28.40596008px;fill:#ffffff;font-family:HGPGyoshotai">十</tspan></text>

<path
   stroke-miterlimit="10"
   d="m 297.11272,-6.5731671 c 0,0 -14.65341,3.646784 -21.19219,-1.763875 -6.53878,-5.4106589 -7.84681,-6.6496989 -9.09668,-8.7923209 -2.32523,-3.986303 -2.85953,-7.665551 -2.23595,-11.271755 l 2.23595,-6.003126 4.18244,4.064758 3.78746,-4.064758 2.029,4.425919 4.02012,-4.425919 3.41955,4.650461 c 0,0 1.57855,1.803102 6.76331,4.734327 5.18477,2.931224 10.14499,2.70533 16.90832,2.70533 6.76331,0 7.21375,0.902227 15.1052,-0.450438 7.89144,-1.352665 10.37088,-4.28389 14.42887,-0.450437 4.058,3.833451 8.27697,8.66517 5.18612,13.5266469 -3.18958,5.018386 -4.67887,3.626494 -8.56913,4.405629 -6.45221,1.291795 -17.83489,0.140677 -17.83489,0.140677 l -18.10811,-1.429767"
   id="path42"
   inkscape:connector-curvature="0"
   style="stroke:#000000;stroke-width:1.35266471;stroke-miterlimit:10" />
<ellipse
   cx="256.5"
   cy="80.748001"
   rx="9.3330002"
   ry="3.4170001"
   id="ellipse44"
   sodipodi:cx="256.5"
   sodipodi:cy="80.748001"
   sodipodi:rx="9.3330002"
   sodipodi:ry="3.4170001"
   transform="matrix(1.3526647,0,0,1.3526647,-111.39202,-35.613527)"
   style="fill:#ffffff" />
<ellipse
   cx="366.33301"
   cy="81.665001"
   rx="9.8330002"
   ry="4.3330002"
   id="ellipse46"
   sodipodi:cx="366.33301"
   sodipodi:cy="81.665001"
   sodipodi:rx="9.8330002"
   sodipodi:ry="4.3330002"
   transform="matrix(1.3526647,0,0,1.3526647,-111.39202,-35.613527)"
   style="fill:#ffffff" />
<line
   stroke-miterlimit="10"
   x1="297.1127"
   y1="19.617125"
   x2="295.76004"
   y2="24.126913"
   id="line48"
   style="fill:#ffffff;stroke:#000000;stroke-width:1.35266471;stroke-miterlimit:10" />
<line
   stroke-miterlimit="10"
   x1="292.80176"
   y1="19.617125"
   x2="292.80176"
   y2="25.253687"
   id="line50"
   style="fill:#ffffff;stroke:#000000;stroke-width:1.35266471;stroke-miterlimit:10" />
<path
   stroke-miterlimit="10"
   d="m 288.42456,25.704119 v 6.763316 c 0,0 -6.08699,-4.282531 -13.75254,-5.184756 -7.66556,-0.902228 -9.47542,-0.911697 -13.64839,0.02977 -6.33858,1.431119 -11.12296,6.507669 -11.12296,6.507669 l -0.004,-6.814721 c 0,0 2.78243,-4.642348 9.21842,-6.711925 6.98921,-2.246776 13.75254,-1.681363 17.76995,-0.990151 6.68081,1.14706 11.53958,6.40081 11.53958,6.40081"
   id="path52"
   inkscape:connector-curvature="0"
   style="stroke:#000000;stroke-width:1.35266471;stroke-miterlimit:10" />
<path
   stroke-miterlimit="10"
   d="m 321.91113,25.704119 v 6.763316 c 0,0 6.08699,-4.282531 13.75254,-5.184756 7.66556,-0.902228 9.47541,-0.911697 13.64839,0.02977 6.33859,1.431119 11.12296,6.507669 11.12296,6.507669 l 0.004,-6.814721 c 0,0 -2.78242,-4.642348 -9.21841,-6.711925 -6.98921,-2.246776 -13.75254,-1.681363 -17.76995,-0.990151 -6.68081,1.14706 -11.53959,6.40081 -11.53959,6.40081"
   id="path54"
   inkscape:connector-curvature="0"
   style="stroke:#000000;stroke-width:1.35266471;stroke-miterlimit:10" />
<circle
   stroke-miterlimit="10"
   cx="289.97198"
   cy="66.633003"
   r="1.635"
   id="circle56"
   sodipodi:cx="289.97198"
   sodipodi:cy="66.633003"
   sodipodi:rx="1.635"
   sodipodi:ry="1.635"
   transform="matrix(1.3526647,0,0,1.3526647,-111.39202,-35.613527)"
   style="stroke:#000000;stroke-miterlimit:10" />
<path
   stroke-miterlimit="10"
   d="m 288.7749,64.706844 c 0,0 -3.8321,2.254901 -12.17398,2.254901 -8.34189,0 -20.28997,-1.126777 -22.54487,-1.126777 -2.25489,0 -4.50843,-1.126761 -4.50843,-1.126761"
   id="path58"
   inkscape:connector-curvature="0"
   style="fill:#ffffff;stroke:#000000;stroke-width:1.35266471;stroke-miterlimit:10" />
<path
   stroke-miterlimit="10"
   d="m 288.7749,42.613774 c 0,0 -8.79232,-1.803098 -15.55564,-1.578561 -6.76333,0.224547 -12.93824,-0.173133 -17.58465,1.578561 -5.38225,2.028997 -5.38225,2.028997 -5.38225,2.028997"
   id="path60"
   inkscape:connector-curvature="0"
   style="fill:#ffffff;stroke:#000000;stroke-width:1.35266471;stroke-miterlimit:10" />
<circle
   stroke-miterlimit="10"
   cx="326.198"
   cy="66.466003"
   r="1.635"
   id="circle62"
   sodipodi:cx="326.198"
   sodipodi:cy="66.466003"
   sodipodi:rx="1.635"
   sodipodi:ry="1.635"
   transform="matrix(1.3526647,0,0,1.3526647,-111.39202,-35.613527)"
   style="stroke:#000000;stroke-miterlimit:10" />
<path
   stroke-miterlimit="10"
   d="m 321.91113,64.480955 c 0,0 3.83209,2.25489 12.17398,2.25489 8.34188,0 20.28997,-1.126765 22.54486,-1.126765 2.2549,0 4.50843,-1.126773 4.50843,-1.126773"
   id="path64"
   inkscape:connector-curvature="0"
   style="fill:#ffffff;stroke:#000000;stroke-width:1.35266471;stroke-miterlimit:10" />
<path
   stroke-miterlimit="10"
   d="m 321.91113,42.387885 c 0,0 8.79232,-1.803109 15.55564,-1.578561 6.76333,0.224536 12.93824,-0.173143 17.58464,1.578561 5.38226,2.028997 5.38226,2.028997 5.38226,2.028997"
   id="path66"
   inkscape:connector-curvature="0"
   style="fill:#ffffff;stroke:#000000;stroke-width:1.35266471;stroke-miterlimit:10" />
<line
   stroke-miterlimit="10"
   x1="298.14206"
   y1="134.59363"
   x2="307.93402"
   y2="134.59363"
   id="line68"
   style="fill:#ffffff;stroke:#000000;stroke-width:1.35266471;stroke-miterlimit:10" />
<path
   stroke-miterlimit="10"
   d="m 318.50242,98.846755 c 0,0 1.3513,-6.31289 8.56642,-4.50844 7.21512,1.80446 6.31153,2.70534 12.17398,6.312895 5.86245,3.60755 13.07621,0.90222 15.78155,0 2.70532,-0.902225 5.41065,-1.803105 5.41065,-1.803105 0,0 -1.35402,6.312885 -7.66555,9.018215 -6.31154,2.70532 -5.4783,2.78784 -13.30617,4.28389 -8.20526,1.56909 -11.48818,-0.67634 -16.44975,-5.18612 -4.96292,-4.51114 -4.51113,-8.117335 -4.51113,-8.117335 z"
   id="path70"
   inkscape:connector-curvature="0"
   style="stroke:#000000;stroke-width:1.35266471;stroke-miterlimit:10" />
<path
   stroke-miterlimit="10"
   d="m 287.78069,98.661435 c 0,0 -1.45546,-6.28989 -8.63947,-4.36775 -7.18536,1.92213 -6.26554,2.80949 -12.06847,6.513075 -5.80294,3.7036 -13.05998,1.1173 -15.78019,0.25971 -2.72021,-0.85759 -5.43906,-1.713825 -5.43906,-1.713825 0,0 1.45816,6.288535 7.81298,8.889715 6.35482,2.60117 5.52293,2.69722 13.37516,4.06475 8.23096,1.43383 11.476,-0.86706 16.36183,-5.45664 4.88718,-4.58959 4.37722,-8.189035 4.37722,-8.189035 z"
   id="path72"
   inkscape:connector-curvature="0"
   style="stroke:#000000;stroke-width:1.35266471;stroke-miterlimit:10" />
<path
   stroke-miterlimit="10"
   d="m 288.86147,114.19814 -7.48564,8.78691 13.52664,-1.8031 7.79405,3.60756 c 0,0 8.38112,-0.45045 10.66306,-1.80311 2.28195,-1.35266 10.94847,1.80311 10.94847,1.80311 0,0 1.70435,-3.60756 -0.54918,-4.96023"
   id="path74"
   inkscape:connector-curvature="0"
   style="fill:#ffffff;stroke:#000000;stroke-width:1.35266471;stroke-miterlimit:10" />
</svg>